HIERARCHY
ROOT Hips
{
 OFFSET 0.000000 0.000000 0.000000
 CHANNELS 6 Xposition Yposition Zposition Yrotation Xrotation Zrotation
 JOINT Chest
 {
  OFFSET 0.000000 9.585900 0.002600
  CHANNELS 3 Yrotation Xrotation Zrotation
  JOINT Chest2
  {
   OFFSET 0.000000 9.601200 -0.005300
   CHANNELS 3 Yrotation Xrotation Zrotation
   JOINT Chest3
   {
    OFFSET 0.000000 9.561800 0.000000
    CHANNELS 3 Yrotation Xrotation Zrotation
    JOINT Chest4
    {
     OFFSET 0.000000 9.552100 0.000000
     CHANNELS 3 Yrotation Xrotation Zrotation
     JOINT Neck
     {
      OFFSET 0.000000 14.453000 0.000000
      CHANNELS 3 Yrotation Xrotation Zrotation
      JOINT Head
      {
       OFFSET 0.000000 8.936500 -0.011300
       CHANNELS 3 Yrotation Xrotation Zrotation
       End Site
       {
        OFFSET 0.000000 17.073600 -0.006000
       }
      }
     }
     JOINT RightCollar
     {
      OFFSET -2.921100 9.558500 0.000000
      CHANNELS 3 Yrotation Xrotation Zrotation
      JOINT RightShoulder
      {
       OFFSET -13.519700 0.000000 0.000000
       CHANNELS 3 Yrotation Xrotation Zrotation
       JOINT RightElbow
       {
        OFFSET 0.000000 -29.696600 0.000000
        CHANNELS 3 Yrotation Xrotation Zrotation
        JOINT RightWrist
        {
         OFFSET 0.000000 -24.004700 0.000000
         CHANNELS 3 Yrotation Xrotation Zrotation
         End Site
         {
          OFFSET 0.000000 -17.728500 0.000000
         }
        }
       }
      }
     }
     JOINT LeftCollar
     {
      OFFSET 2.921100 9.558500 0.000000
      CHANNELS 3 Yrotation Xrotation Zrotation
      JOINT LeftShoulder
      {
       OFFSET 13.519700 0.000000 0.000000
       CHANNELS 3 Yrotation Xrotation Zrotation
       JOINT LeftElbow
       {
        OFFSET 0.000000 -29.696600 0.000000
        CHANNELS 3 Yrotation Xrotation Zrotation
        JOINT LeftWrist
        {
         OFFSET 0.000000 -24.004700 0.000000
         CHANNELS 3 Yrotation Xrotation Zrotation
         End Site
         {
          OFFSET 0.000000 -17.728500 0.000000
         }
        }
       }
      }
     }
    }
   }
  }
 }
 JOINT RightHip
 {
  OFFSET -7.771700 -0.012900 -0.001300
  CHANNELS 3 Yrotation Xrotation Zrotation
  JOINT RightKnee
  {
   OFFSET 0.000000 -40.869800 0.001200
   CHANNELS 3 Yrotation Xrotation Zrotation
   JOINT RightAnkle
   {
    OFFSET 0.000000 -39.717900 0.002100
    CHANNELS 3 Yrotation Xrotation Zrotation
    JOINT RightToe
    {
     OFFSET 0.000000 -4.965400 11.033500
     CHANNELS 3 Yrotation Xrotation Zrotation
     End Site
     {
      OFFSET 0.000000 -1.423100 5.872300
     }
    }
   }
  }
 }
 JOINT LeftHip
 {
  OFFSET 7.771700 -0.012900 -0.001300
  CHANNELS 3 Yrotation Xrotation Zrotation
  JOINT LeftKnee
  {
   OFFSET 0.000000 -40.869800 0.001200
   CHANNELS 3 Yrotation Xrotation Zrotation
   JOINT LeftAnkle
   {
    OFFSET 0.000000 -39.717900 0.002100
    CHANNELS 3 Yrotation Xrotation Zrotation
    JOINT LeftToe
    {
     OFFSET 0.000000 -4.965400 11.033500
     CHANNELS 3 Yrotation Xrotation Zrotation
     End Site
     {
      OFFSET 0.000000 -1.423100 5.872300
     }
    }
   }
  }
 }
}
MOTION
Frames: 12
Frame Time: 0.008333
0.000000 85.388000 0.000000 0.000000 -5.767877 0.000000 0.000000 11.653817 0.000000 0.000000 -5.885947 0.000000 0.000000 -0.000000 0.000000 0.000000 -0.000000 0.000000 0.000000 12.528835 0.000000 0.000000 0.711642 0.000000 0.000000 -0.000000 0.000000 0.000000 0.000000 -90.000000 0.000000 -2.309062 0.000000 0.000000 2.309062 0.000000 0.000000 -0.000000 0.000000 0.000000 -0.000000 90.000000 0.000000 -2.309062 0.000000 0.000000 2.309062 0.000000 0.000000 8.520406 0.000000 0.000000 1.905762 0.000000 -0.000000 -4.658285 0.000000 0.000000 -0.000000 0.000000 0.000000 8.520406 0.000000 0.000000 1.905762 0.000000 -0.000000 -4.658285 0.000000 0.000000 -0.000000 0.000000
-5.124249 49.644666 36.004750 173.380352 -30.304090 -6.909006 3.272999 19.227597 5.892605 0.321684 2.373315 0.497060 0.539804 3.898125 0.824287 2.759991 16.559886 3.862620 -7.327428 19.261622 2.789618 -14.241565 0.635594 7.327253 11.744922 -4.336755 -12.239324 45.736824 -36.495434 -34.655903 15.957757 0.133943 -5.252987 -2.420978 7.296120 -7.715082 -15.401222 -11.038961 0.149949 -31.279318 -40.023816 15.715617 -38.319921 -2.543507 12.986644 5.208222 8.523978 -3.614635 -3.169158 -50.380722 9.811157 -82.513003 79.790686 -70.799426 1.601636 -9.808413 -5.039134 -0.683448 1.521737 -0.309879 -15.294707 -54.870060 19.721012 156.382609 83.599249 145.866425 -3.574213 -9.907730 7.032072 -0.281834 -0.716454 -0.168343
-5.134810 49.652095 36.014981 173.424245 -30.420980 -6.916143 3.319869 19.309103 5.890627 0.335221 2.395712 0.503491 0.562005 3.932821 0.834840 2.847658 16.614371 3.899278 -7.143154 19.474791 2.859647 -13.905702 1.016115 7.374570 11.438526 -4.310758 -12.159003 45.830786 -36.560782 -34.753553 16.094344 -0.095287 -5.363916 -2.643572 6.957727 -9.206282 -15.483228 -10.831080 0.349161 -30.968252 -40.120740 15.475915 -38.331834 -3.230097 13.388732 5.129984 8.359638 -2.937388 -3.104014 -50.260589 9.751811 -82.460641 79.766980 -70.721897 1.554635 -9.815497 -5.041056 -0.633955 1.536594 -0.287268 -15.265402 -54.758759 19.644605 156.968431 83.669177 146.514911 -4.058587 -9.829789 7.097286 -0.353475 -0.763884 -0.192707
-5.139970 49.661189 36.031008 173.453984 -30.545605 -6.959627 3.396317 19.392005 5.937418 0.349315 2.420708 0.510686 0.585168 3.971559 0.846687 2.937579 16.675270 3.939344 -6.957939 19.654153 2.924615 -13.570450 1.333574 7.417300 11.122107 -4.289063 -12.080843 45.949739 -36.626218 -34.869809 16.225316 -0.318877 -5.477852 -2.857914 6.623142 -10.648968 -15.567866 -10.612084 0.548452 -30.706460 -40.199401 15.297014 -38.338892 -3.943409 13.775175 5.082091 8.165032 -2.206890 -3.026783 -50.126109 9.758719 -82.254232 79.710550 -70.495413 1.507163 -9.827575 -5.010804 -0.589522 1.577126 -0.267935 -15.266624 -54.624154 19.635539 157.680372 83.758565 147.287522 -4.502582 -9.778613 7.147443 -0.387047 -0.764585 -0.205866
-5.143407 49.667566 36.058966 173.369703 -30.635329 -6.969574 3.565184 19.427137 6.009154 0.345926 2.448923 0.517694 0.624209 4.013119 0.859756 3.021428 16.742499 3.981415 -6.768529 19.799474 2.982374 -13.229119 1.586887 7.450316 10.815340 -4.269893 -12.013857 46.004031 -36.696617 -34.925614 16.396063 -0.572589 -5.627345 -3.041344 6.316429 -12.002853 -15.633167 -10.400502 0.731696 -30.532306 -40.249325 15.203600 -38.334833 -4.657876 14.135999 5.063898 7.939370 -1.473898 -2.976473 -50.041681 9.843036 -81.882270 79.683447 -70.195517 1.662711 -9.815210 -4.890089 -0.770129 1.640035 -0.340410 -15.212897 -54.538626 19.643247 157.742136 83.795149 147.387120 -4.690098 -9.722624 7.189784 -0.435270 -0.794895 -0.232536
-5.151480 49.680960 36.079183 173.372215 -30.790008 -6.995396 3.648474 19.538838 6.058676 0.310600 2.481319 0.521988 0.693905 4.055353 0.876023 3.099839 16.814392 4.026124 -6.576823 19.908314 3.033450 -12.885292 1.771896 7.475257 10.525484 -4.253873 -11.963830 45.961884 -36.787349 -34.895332 16.616723 -0.850528 -5.817738 -3.188629 6.051863 -13.225959 -15.679705 -10.212646 0.893297 -30.475957 -40.263679 15.199541 -38.308297 -5.347542 14.473719 5.090475 7.700966 -0.797421 -2.953146 -49.882228 9.869526 -81.654850 79.652794 -69.998175 1.699906 -9.767108 -4.835187 -0.814539 1.631819 -0.362079 -15.149080 -54.387281 19.558390 157.684970 83.830917 147.358130 -4.802019 -9.683795 7.203933 -0.403360 -0.810717 -0.231546
-5.158679 49.699047 36.097609 173.415188 -30.974235 -7.050132 3.674776 19.703828 6.113264 0.353172 2.494891 0.526717 0.704882 4.102322 0.898879 3.173817 16.890339 4.074269 -6.388820 19.978864 3.080355 -12.550681 1.886278 7.498475 10.255678 -4.243715 -11.930847 45.982672 -36.873388 -34.928322 16.759279 -1.109660 -5.974785 -3.301636 5.829262 -14.290140 -15.707115 -10.060381 1.034733 -30.537120 -40.241214 15.264290 -38.259961 -5.995050 14.796710 5.168060 7.458279 -0.219343 -2.943512 -49.687809 9.892359 -81.505284 79.616662 -69.843722 1.682199 -9.722216 -4.815329 -0.801285 1.610669 -0.355070 -15.123709 -54.190704 19.483830 157.859409 83.897218 147.562126 -4.855811 -9.657325 7.180413 -0.331264 -0.817808 -0.204317
-5.174438 49.717387 36.118385 173.514058 -31.140863 -7.087922 3.655177 19.830844 6.133671 0.363966 2.533806 0.529882 0.682692 4.130223 0.905359 3.280546 16.994857 4.142916 -6.208925 20.013015 3.125686 -12.233733 1.934191 7.525385 10.006276 -4.246576 -11.907513 46.035872 -36.942776 -35.000578 16.839330 -1.358243 -6.103719 -3.381516 5.638776 -15.184159 -15.712706 -9.953969 1.156509 -30.693574 -40.180916 15.372969 -38.168566 -6.602617 15.108381 5.260558 7.216115 0.236086 -2.889313 -49.505778 9.822566 -81.351192 79.570725 -69.661415 1.595183 -9.667668 -4.818768 -0.719683 1.575682 -0.310000 -15.047021 -54.026257 19.279887 158.013706 83.997083 147.792771 -4.853967 -9.626378 7.108667 -0.248901 -0.813209 -0.150253
-5.189344 49.736002 36.144841 173.514570 -31.290616 -7.087093 3.712435 19.931323 6.167742 0.370521 2.575781 0.536113 0.668568 4.156166 0.905388 3.383048 17.104020 4.216155 -6.038833 20.014187 3.168853 -11.936949 1.922066 7.554661 9.777324 -4.270978 -11.882924 46.083628 -36.992383 -35.077887 16.892354 -1.594851 -6.218660 -3.438912 5.472379 -15.910606 -15.710323 -9.896477 1.262044 -30.900450 -40.080040 15.502052 -38.009549 -7.185482 15.403345 5.330560 6.992811 0.573709 -2.808509 -49.349248 9.792262 -81.079068 79.526644 -69.407203 1.622168 -9.626132 -4.763151 -0.751290 1.574796 -0.329016 -14.776273 -53.901480 18.982962 157.511408 84.064510 147.450449 -4.816441 -9.603086 7.061901 -0.229754 -0.810145 -0.135524
-5.199437 49.757000 36.174789 173.450368 -31.436174 -7.086234 3.824157 20.027142 6.231928 0.405632 2.610285 0.557743 0.710306 4.246477 0.940544 3.390082 17.148522 4.239767 -5.876757 19.985649 3.204247 -11.655191 1.855159 7.575181 9.580882 -4.315010 -11.852911 46.116089 -37.026835 -35.149970 16.936272 -1.805710 -6.325797 -3.491259 5.328845 -16.478326 -15.713103 -9.876395 1.355764 -31.103658 -39.946881 15.628637 -37.791121 -7.749793 15.667645 5.372788 6.810432 0.831443 -2.703410 -49.198311 9.817503 -80.626402 79.475209 -69.002422 1.705158 -9.560797 -4.651471 -0.856809 1.586927 -0.378434 -14.572241 -53.762416 18.841354 157.080977 84.110951 147.108083 -4.815753 -9.570887 7.084943 -0.217193 -0.825961 -0.158706
-5.206035 49.781629 36.205608 173.376355 -31.584667 -7.103679 3.945467 20.119660 6.317464 0.405400 2.650850 0.559735 0.753019 4.300077 0.973862 3.426513 17.213588 4.275928 -5.717524 19.932406 3.226895 -11.377032 1.741535 7.575824 9.429566 -4.368729 -11.816300 46.126971 -37.055325 -35.207456 16.978910 -1.982578 -6.423131 -3.542600 5.210433 -16.901769 -15.719521 -9.874288 1.435564 -31.263430 -39.796632 15.739127 -37.552870 -8.292152 15.891986 5.396405 6.677800 1.042607 -2.633089 -49.042024 9.881156 -80.216650 79.438499 -68.625062 1.800968 -9.528613 -4.562843 -0.970775 1.623307 -0.430772 -14.378902 -53.613948 18.732110 156.617948 84.160860 146.741045 -4.767738 -9.521184 7.075872 -0.250903 -0.858317 -0.162771
-5.229164 49.804779 36.238405 173.422809 -31.685261 -7.088730 3.912433 20.203992 6.289620 0.429133 2.665064 0.575290 0.756697 4.332166 0.984698 3.471855 17.282360 4.315913 -5.559649 19.859865 3.237244 -11.099295 1.591017 7.556209 9.318493 -4.422582 -11.770984 46.116815 -37.083226 -35.248176 17.012616 -2.127471 -6.503595 -3.576617 5.115190 -17.200602 -15.733079 -9.870175 1.494306 -31.363662 -39.647221 15.839500 -37.342783 -8.803958 16.074658 5.414710 6.590496 1.225551 -2.585971 -48.929493 9.809569 -79.856019 79.411430 -68.299997 1.765539 -9.414161 -4.522690 -0.954850 1.562959 -0.421909 -14.177375 -53.525744 18.470222 156.042263 84.252851 146.284869 -4.815177 -9.444620 7.034274 -0.157274 -0.854876 -0.147480
